<?xml version="1.0" encoding="UTF-8"?>
<!DOCTYPE svg PUBLIC "-//W3C//DTD SVG 1.1//EN" "http://www.w3.org/Graphics/SVG/1.1/DTD/svg11.dtd">
<!-- Creator: CorelDRAW X6 -->
<svg xmlns="http://www.w3.org/2000/svg" xml:space="preserve" width="5.2788in" height="5.2788in" version="1.1" style="shape-rendering:geometricPrecision; text-rendering:geometricPrecision; image-rendering:optimizeQuality; fill-rule:evenodd; clip-rule:evenodd"
viewBox="0 0 5279 5279"
 xmlns:xlink="http://www.w3.org/1999/xlink">
 <defs>
  <style type="text/css">
   <![CDATA[
    .fil0 {fill:none}
    .fil8 {fill:#282829}
    .fil6 {fill:#CF3438}
    .fil2 {fill:#FEFEFE}
    .fil7 {fill:#669900}
    .fil1 {fill:darkred}
    .fil5 {fill:#F7941D}
    .fil3 {fill:#FEFEFE;fill-rule:nonzero}
    .fil4 {fill:#222A35;fill-rule:nonzero}
   ]]>
  </style>
 </defs>
 <g id="Layer_x0020_1">
  <metadata id="CorelCorpID_0Corel-Layer"/>
  <g id="_365367616">
   <rect class="fil0" width="5279" height="5279"/>
   <circle class="fil1" cx="2639" cy="2639" r="2483"/>
   <circle class="fil2" cx="2639" cy="2639" r="2413"/>
   <circle class="fil1" cx="2639" cy="2639" r="2343"/>
   <circle class="fil2" cx="2639" cy="2639" r="1678"/>
   <circle class="fil0" cx="2647" cy="2644" r="1891"/>
   <path class="fil3" d="M756 2610l-272 -7 1 -45 272 7 -1 45zm25 -285l-7 57 -216 66 0 1c36,3 62,5 77,7l127 16 -5 40 -270 -34 7 -56 214 -66 0 -1c-35,-3 -60,-5 -75,-7l-128 -16 5 -40 270 34zm29 -132l-10 44 -218 -50 -13 56 -47 -11 36 -156 47 11 -13 56 218 50zm62 -203l-39 116 -257 -87 39 -116 45 15 -25 73 57 19 23 -68 45 15 -23 68 66 22 25 -73 45 15zm-105 -145l6 -13c6,-13 7,-24 5,-32 -3,-9 -10,-16 -22,-21 -12,-5 -22,-6 -29,-2 -8,4 -15,13 -21,26l-6 12 67 30zm43 19l95 43 -19 41 -248 -112 25 -56c12,-26 27,-43 45,-50 18,-7 39,-5 64,6 15,7 26,16 35,27 9,11 13,24 15,39 69,-4 113,-7 134,-8l-21 46 -116 3 -10 22zm253 -257l-28 50 -224 -22 -1 1c32,17 55,29 69,36l111 64 -20 35 -236 -135 28 -49 222 22 1 -1c-31,-16 -53,-28 -66,-35l-112 -64 20 -35 236 135zm111 -146l-60 -28 -48 61 41 52 -30 38 -168 -228 34 -43 261 109 -30 38zm-105 -49c-55,-25 -86,-39 -93,-43 -7,-3 -13,-6 -17,-8 10,12 36,44 76,94l34 -43zm209 -69l-31 33 -162 -154 -40 42 -35 -33 111 -116 35 33 -40 42 162 154zm64 -64l-188 -197 33 -31 188 197 -33 31zm139 -294c28,35 42,68 44,98 1,30 -11,55 -37,75 -26,20 -53,26 -81,18 -29,-8 -57,-30 -85,-66 -28,-36 -42,-68 -43,-98 -1,-30 11,-54 37,-75 26,-20 53,-26 81,-18 28,8 57,30 84,66zm-122 96c19,24 36,39 53,46 17,6 32,4 46,-7 28,-22 23,-57 -14,-105 -38,-48 -71,-61 -99,-39 -14,11 -20,25 -18,43 2,18 13,39 32,62zm405 -108l-50 28 -183 -132 -1 1c20,31 33,53 41,66l64 111 -35 20 -135 -236 49 -28 181 131 1 -1c-19,-30 -32,-51 -39,-64l-64 -112 35 -20 135 236zm166 -78l-41 -53 -71 32 13 65 -44 20 -44 -280 50 -23 181 218 -44 20zm-70 -92c-37,-48 -58,-74 -63,-81 -5,-6 -8,-11 -11,-15 4,16 11,55 23,119l50 -23zm141 66l-87 -257 43 -14 72 212 82 -28 15 45 -124 42zm357 -368l31 173c4,20 3,38 -1,54 -4,16 -12,29 -24,40 -12,10 -26,17 -44,20 -27,5 -49,0 -67,-15 -18,-15 -30,-38 -35,-68l-31 -172 44 -8 29 164c4,21 10,35 18,44 8,9 20,11 35,9 14,-3 24,-9 29,-20 5,-11 5,-27 2,-47l-29 -163 44 -8zm288 254l-57 1 -98 -203 -1 0c3,36 4,62 5,78l3 128 -40 1 -7 -272 57 -1 97 201 1 0c-2,-35 -4,-60 -4,-75l-3 -129 40 -1 7 272zm53 1l7 -272 45 1 -7 272 -45 -1zm253 -251l45 6 -106 260 -49 -6 -37 -279 45 6 19 165c1,10 2,21 3,34 1,13 1,22 1,27 2,-11 9,-30 18,-58l60 -155zm156 307l-119 -27 61 -265 119 27 -11 46 -75 -17 -13 58 70 16 -11 46 -70 -16 -16 68 75 17 -11 46zm135 -120l14 5c13,5 24,5 33,1 8,-4 15,-12 19,-24 4,-12 4,-22 -1,-29 -5,-7 -14,-13 -28,-18l-13 -4 -24 70zm-15 44l-33 99 -43 -14 87 -257 59 20c27,9 45,22 54,40 9,17 9,39 0,65 -5,15 -13,28 -23,37 -10,10 -23,16 -37,18 11,68 18,112 21,132l-47 -16 -15 -115 -23 -8zm255 130c-10,22 -24,37 -43,44 -18,7 -39,6 -61,-4 -21,-9 -37,-23 -48,-40l22 -49c10,13 18,24 26,31 8,7 15,12 23,16 9,4 17,5 24,3 7,-2 12,-8 16,-16 2,-5 3,-10 3,-14 0,-5 -2,-10 -4,-15 -3,-5 -8,-15 -17,-28 -9,-13 -14,-23 -17,-33 -3,-9 -4,-19 -4,-29 0,-10 3,-21 8,-33 10,-22 24,-36 41,-44 17,-7 36,-6 57,3 10,5 19,10 27,18 8,7 15,16 23,26l-32 35c-8,-10 -15,-18 -20,-23 -6,-5 -12,-9 -18,-12 -8,-4 -15,-4 -21,-1 -6,3 -11,8 -14,15 -2,5 -3,9 -3,13 0,4 1,9 3,14 2,5 8,15 18,29 13,19 20,36 22,50 2,14 -1,29 -8,45zm4 85l124 -242 40 21 -124 242 -40 -21zm158 87l-39 -22 112 -194 -50 -29 24 -42 139 80 -24 42 -50 -29 -112 194zm222 -42l101 -66 39 28 -154 94 -61 86 -36 -26 60 -85 40 -178 40 28 -29 117zm59 255l188 -197 33 31 -188 197 -33 -31zm197 208l-37 -43 95 -204 -1 -1c-26,25 -45,43 -57,53l-97 84 -26 -30 205 -178 37 43 -94 203 1 1c26,-24 44,-41 55,-51l97 -84 27 31 -205 178zm171 248l-28 -43 66 -109 -25 -7 -82 52 -24 -38 229 -147 24 38 -105 67 36 -2 109 -2 27 42 -141 3 -87 145zm333 54l-157 80c-18,9 -35,14 -52,15 -17,1 -32,-3 -45,-11 -13,-8 -24,-20 -32,-36 -12,-24 -14,-47 -5,-69 9,-22 27,-39 55,-54l156 -80 20 40 -148 76c-19,10 -31,20 -37,30 -6,10 -5,22 2,36 7,13 16,20 28,22 12,1 27,-3 46,-12l148 -76 20 40zm-155 368l-16 -49 126 -73c4,-3 14,-8 28,-15 14,-7 24,-12 29,-14 -7,2 -17,4 -32,6 -15,3 -25,4 -32,5l-144 19 -16 -48 240 -138 14 42 -132 73c-24,13 -46,24 -64,33 7,-2 18,-4 32,-7 15,-3 26,-5 35,-5l154 -20 14 40 -134 78c-6,3 -15,8 -28,15 -13,6 -24,12 -33,16 10,-2 21,-5 36,-7 14,-3 26,-5 35,-6l149 -22 14 42 -275 36zm44 206l61 -27 -14 -76 -66 -4 -9 -48 282 26 10 54 -255 122 -9 -48zm107 -46c55,-24 86,-38 94,-41 7,-3 13,-5 17,-7 -16,0 -56,-3 -121,-6l10 54zm-96 120l270 -34 6 45 -270 34 -6 -45zm14 180l-1 -45 224 -6 -1 -58 48 -1 4 160 -48 1 -1 -58 -224 6z"/>
   <circle class="fil2" cx="4631" cy="2971" r="96"/>
   <circle class="fil2" cx="664" cy="2971" r="96"/>
   <path class="fil4" d="M2142 3716l173 0 0 49 -16 0c-9,0 -15,1 -18,2 -3,2 -5,4 -7,8 -1,3 -2,10 -2,20l0 197c0,11 1,18 2,21 1,3 3,5 6,7 4,2 9,3 16,3l19 0 0 49 -173 0 0 -49 14 0c10,0 17,-1 20,-2 3,-1 5,-4 7,-7 1,-3 2,-9 2,-19l0 -198c0,-11 -1,-18 -2,-22 -1,-3 -4,-6 -7,-8 -2,-1 -8,-2 -17,-2l-16 0 0 -49zm200 0l173 0 0 49 -17 0c-8,0 -13,1 -16,3 -3,2 -6,5 -7,8 -1,3 -2,11 -2,21l0 129c0,24 2,42 7,54 5,12 12,21 22,27 10,6 22,9 36,9 14,0 26,-3 37,-10 11,-7 19,-15 23,-26 5,-10 7,-28 7,-52l0 -142c0,-6 -1,-10 -2,-13 -2,-3 -5,-6 -8,-7 -2,-1 -9,-2 -18,-2l-14 0 0 -49 148 0 0 49 -12 0c-11,0 -19,1 -21,2 -4,2 -7,5 -9,9 -1,3 -2,10 -2,21l0 140c0,26 -4,47 -11,65 -10,24 -27,42 -50,55 -23,13 -50,20 -81,20 -22,0 -42,-3 -59,-10 -17,-7 -33,-16 -45,-29 -13,-13 -22,-26 -27,-40 -5,-14 -8,-34 -8,-62l0 -137c0,-13 -1,-21 -2,-24 -1,-4 -4,-6 -7,-8 -3,-2 -9,-3 -18,-3l-16 0 0 -49zm396 0l173 0 0 49 -11 0c-11,0 -18,1 -20,2 -4,2 -7,4 -9,8 -2,3 -3,10 -3,19l0 95 111 -103c5,-5 8,-8 9,-9 1,-2 1,-3 1,-4 0,-2 -1,-4 -3,-5 -2,-1 -7,-2 -15,-2l-14 0 0 -49 161 0 0 49 -5 0c-7,0 -13,0 -16,1 -3,1 -6,2 -11,5 -4,3 -10,7 -16,13l-86 74 103 138c9,12 15,19 19,21 5,3 13,5 24,5l7 0 0 49 -180 0 0 -49 7 0c13,0 21,-1 24,-2 3,-1 4,-3 4,-5 0,-2 -3,-7 -8,-15l-63 -89 -53 46 0 36c0,9 1,15 3,18 2,3 4,6 7,7 3,1 9,2 19,2l14 0 0 49 -173 0 0 -49 13 0c10,0 17,-1 20,-2 3,-2 6,-4 7,-8 1,-3 2,-10 2,-21l0 -194c0,-11 -1,-18 -2,-21 -1,-4 -4,-6 -7,-8 -3,-2 -10,-3 -18,-3l-15 0 0 -49z"/>
   <g>
    <path class="fil5" d="M3466 2933l0 115 -79 0c-63,-84 -158,-112 -283,-86 58,97 115,193 173,290 -142,21 -277,76 -405,167 74,-104 227,-173 366,-191 -102,-159 -199,-319 -301,-478l-282 231 0 454 -17 0 0 -454 -282 -231c-102,159 -199,319 -301,478 139,18 293,86 366,191 -128,-91 -264,-147 -405,-167 58,-97 115,-193 173,-290 -125,-26 -219,2 -283,86l-79 0 0 -115 94 0c4,-60 16,-119 34,-174l-86 -37 45 -106 85 36c28,-53 61,-103 101,-147l-64 -66 83 -80 63 66c46,-38 96,-70 151,-96l-32 -85 108 -41 32 85c47,-14 96,-23 147,-27l0 -91 115 0 0 91c51,4 100,13 147,27l32 -85 108 41 -32 85c54,26 105,58 151,96l63 -66 83 80 -64 66c39,45 73,94 101,147l85 -36 45 106 -86 37c18,55 30,114 34,174l94 0z"/>
    <g>
     <path class="fil6" d="M2511 3613c8,-672 -328,-1326 -834,-1655 141,-25 282,-49 423,-74 496,640 594,1210 411,1729z"/>
     <path class="fil7" d="M2782 3613c-8,-672 328,-1326 834,-1655 -141,-25 -282,-49 -423,-74 -496,640 -594,1210 -411,1729z"/>
    </g>
    <path class="fil8" d="M2597 1255c25,11 42,35 42,64 0,39 -31,70 -70,70 -39,0 -70,-31 -70,-70 0,-29 17,-53 42,-64 26,-102 72,-141 110,-141 68,0 124,224 124,501 0,276 -61,501 -124,501 -63,0 -91,-109 -103,-347 25,137 63,297 95,298 45,1 73,-197 73,-441 0,-244 -33,-441 -73,-441 -13,0 -30,28 -46,71z"/>
    <path class="fil7" d="M2969 1759c-22,16 -52,19 -76,4 -33,-19 -45,-62 -26,-95 19,-33 62,-45 95,-26 25,14 37,41 34,68 76,74 86,133 67,166 -34,59 -256,-5 -495,-143 -239,-138 -403,-303 -372,-357 31,-54 140,-24 352,84 -131,-47 -289,-94 -305,-66 -24,39 134,162 345,284 211,122 398,192 419,157 6,-11 -10,-40 -38,-76z"/>
    <path class="fil6" d="M2344 1829c-3,-27 10,-54 34,-68 33,-19 76,-8 95,26 19,33 8,76 -26,95 -25,14 -55,12 -76,-4 -102,29 -158,8 -177,-25 -34,-59 132,-219 372,-357 239,-138 464,-198 495,-143 31,54 -49,133 -249,263 106,-90 225,-203 210,-231 -22,-40 -208,35 -419,157 -211,122 -365,249 -345,284 6,11 39,12 85,5z"/>
   </g>
   <path class="fil3" d="M956 3465c-3,-6 -3,-12 -1,-18 2,-6 6,-11 12,-13 6,-3 12,-3 18,0 6,2 11,7 13,12 3,6 3,12 1,18 -2,6 -6,11 -13,13 -6,3 -12,3 -18,1 -6,-2 -11,-6 -13,-13zm25 54c-3,-6 -3,-12 -1,-18 2,-6 6,-11 12,-13 6,-3 12,-3 18,0 6,2 11,7 13,12 3,6 3,12 1,18 -2,6 -7,10 -13,13 -6,3 -12,3 -18,1 -6,-2 -11,-6 -13,-13zm-125 313c-3,-5 -4,-11 -3,-18 1,-7 5,-12 10,-15 6,-4 12,-5 18,-3 6,2 11,5 15,10 4,6 5,12 3,18 -1,6 -5,11 -10,15 -6,4 -12,5 -18,3 -6,-1 -11,-5 -15,-10zm32 50c-3,-5 -4,-11 -3,-18 1,-7 5,-12 10,-15 6,-4 12,-5 18,-3 6,2 11,5 15,10 4,6 5,12 3,18 -1,6 -5,11 -11,15 -6,4 -12,5 -18,3 -6,-1 -11,-5 -15,-11zm201 -9c-11,9 -20,18 -25,26 -5,8 -5,16 0,23l21 26 60 -48c6,-5 9,-10 8,-17 -1,-6 -3,-12 -8,-18 -7,-9 -15,-12 -24,-10 -9,2 -20,8 -32,18zm376 438l20 14c4,3 9,4 13,2 5,-2 9,-6 14,-12l73 -102c6,-8 9,-14 8,-19 0,-5 -1,-8 -2,-11 -1,-2 -2,-4 -3,-4 2,-2 4,-4 8,-6 4,-2 9,-3 14,-3 5,0 11,2 16,6 9,6 13,15 14,25 0,10 -3,21 -11,32l-81 113c-10,14 -21,23 -35,27 -13,4 -26,2 -39,-7l-33 -23 -44 -34 -44 -34 -65 -54c-8,-6 -13,-15 -16,-23 -8,-2 -15,-7 -22,-14l-106 -105 -38 -42 -22 -28 -14 11c-13,10 -27,16 -44,18 -17,2 -33,-7 -49,-27 -11,-14 -16,-27 -15,-39 1,-12 6,-21 15,-29 2,-2 4,-3 6,-4 0,6 1,13 4,21 2,8 6,14 10,20 5,6 11,10 17,13 6,2 13,1 19,-4l21 -17 -22 -26c-29,-36 -21,-72 25,-109 20,-16 37,-25 53,-27 15,-2 28,0 39,7 10,7 20,16 30,28 11,13 17,25 20,36 2,10 0,22 -7,34 -7,12 -21,26 -40,42l-36 29 22 28 35 39 94 93c5,5 10,7 16,6 6,-1 11,-4 17,-9 12,-12 11,-25 -3,-38l-28 -27c-14,-14 -21,-28 -21,-43 0,-15 7,-30 20,-43 15,-15 31,-22 49,-21 18,1 38,12 59,33 3,3 11,11 23,23 8,8 16,13 23,16 7,3 13,3 17,2 4,4 3,10 -4,17 -7,7 -15,12 -25,13 -10,1 -19,-2 -27,-10l-36 -34c-9,-8 -17,-13 -25,-14 -8,-1 -14,2 -20,8 -5,5 -7,11 -7,17 0,6 3,13 9,18l21 20c35,34 38,66 8,98 -6,6 -12,11 -19,15l63 53 44 34 0 0 44 33zm119 128c-7,-5 -11,-10 -11,-16 -1,-6 1,-12 5,-18l89 -137c5,-8 8,-15 7,-20 0,-5 -1,-8 -3,-11 -2,-2 -2,-3 -3,-4 1,-2 4,-4 8,-6 4,-2 8,-3 14,-3 5,0 11,2 16,5 9,6 14,14 15,24 1,11 -2,21 -9,32l-94 146c-4,6 -8,9 -14,11 -6,2 -12,1 -19,-4zm175 271c-6,-2 -10,-7 -13,-13 -3,-6 -3,-12 0,-18 2,-6 7,-11 13,-13 6,-3 12,-3 18,0 6,2 11,7 13,13 3,6 3,12 0,18 -2,6 -7,11 -13,13 -6,3 -12,3 -18,0zm55 22c-6,-2 -10,-7 -13,-13 -3,-6 -3,-12 0,-18 2,-6 7,-11 13,-13 6,-3 12,-3 18,0 6,3 11,7 13,13 2,6 3,12 0,18 -2,6 -7,11 -13,13 -6,3 -12,3 -18,0zm362 -171c2,-7 1,-13 -3,-18 -4,-5 -9,-8 -15,-9 -9,-3 -17,0 -25,7 -8,7 -14,17 -17,30 -3,12 -4,24 -2,36 2,12 8,20 18,23l8 2c5,1 9,1 13,-2 4,-3 7,-8 9,-16l15 -52zm-11 -66c16,4 28,10 38,16 9,7 16,16 19,28 3,12 2,28 -3,47l-14 50c-4,16 -12,27 -22,33 -10,6 -23,8 -38,3l-124 -35 -47 -13c-6,14 -14,25 -27,34 -12,9 -29,14 -50,15 -21,1 -46,-5 -76,-16l-8 -3c-49,-19 -77,-42 -86,-67 -9,-25 -8,-52 3,-79 7,-18 16,-32 25,-41 9,-9 18,-14 26,-15 8,-1 16,-1 22,2 7,3 12,7 14,12 2,6 3,11 1,17 -8,2 -16,8 -25,16 -9,8 -16,18 -20,30 -15,39 4,68 58,90 28,11 49,15 66,11 16,-3 27,-11 32,-24l-7 -3c-13,-5 -22,-12 -26,-20 -4,-8 -4,-16 -1,-24 3,-7 7,-13 12,-17 2,4 5,9 10,13 5,5 11,8 18,12 30,13 63,22 95,33l34 9c-1,-7 -2,-15 -1,-25 1,-10 3,-20 6,-29 7,-23 15,-40 25,-50 10,-10 21,-15 33,-16 11,-1 24,1 37,5zm9 -22c-7,-2 -13,-6 -16,-13 -4,-6 -5,-13 -3,-20 2,-7 6,-12 13,-16 6,-4 13,-4 21,-2 7,2 12,6 16,12 4,6 5,13 3,20 -2,7 -6,12 -13,16 -6,4 -13,5 -20,3zm212 157c-2,13 -1,25 0,35 2,10 7,16 16,17l33 4 9 -76c1,-8 -1,-13 -6,-17 -5,-4 -11,-7 -18,-7 -11,-1 -19,2 -24,9 -5,7 -9,19 -11,35zm11 -113c-6,-1 -12,-4 -16,-9 -4,-5 -6,-11 -5,-18 1,-7 4,-12 9,-16 5,-4 11,-6 17,-5 7,1 12,4 16,9 4,5 6,11 5,18 -1,7 -4,12 -9,16 -5,4 -11,6 -18,5zm59 7c-6,-1 -12,-4 -16,-9 -4,-5 -6,-11 -5,-18 1,-7 4,-12 9,-16 5,-4 11,-6 17,-5 7,1 12,4 16,9 4,5 5,11 5,18 -1,7 -4,12 -9,16 -5,4 -11,6 -18,5zm134 290c-6,0 -12,-3 -17,-7 -5,-5 -7,-10 -7,-17 0,-7 3,-12 8,-17 5,-5 11,-7 17,-6 7,0 12,3 17,7 5,5 7,10 6,17 0,7 -3,12 -7,17 -5,5 -10,7 -17,6zm60 2c-6,0 -12,-3 -17,-7 -5,-5 -7,-10 -7,-17 0,-7 3,-12 8,-17 5,-5 11,-7 17,-6 7,0 12,3 17,7 4,5 6,10 6,17 0,7 -3,12 -7,17 -5,5 -10,7 -17,6zm147 -122l24 -3c5,-1 9,-3 11,-7 2,-4 3,-10 2,-18l-15 -125c-1,-10 -3,-16 -7,-20 -3,-4 -6,-6 -9,-6 -3,-1 -4,-1 -5,-1 0,-3 0,-6 2,-10 2,-4 4,-8 8,-11 4,-3 9,-6 16,-6 11,-1 20,2 27,9 7,7 12,17 14,30l17 138c2,17 0,31 -7,43 -7,12 -18,19 -33,21l-40 5 -56 4 -56 1 -53 -2c-13,0 -25,-5 -36,-14 -6,4 -11,7 -16,9 -5,2 -11,2 -18,3 -4,0 -8,0 -12,0 -18,1 -37,0 -56,-1l-38 -5c-6,-1 -12,-2 -17,-4 -6,-2 -10,-4 -13,-7 -10,4 -22,5 -35,4 -46,-6 -65,-37 -58,-95 3,-25 9,-44 19,-56 10,-12 20,-20 33,-22 12,-3 26,-3 41,-1 17,2 30,6 39,12 9,6 15,16 18,29 3,14 3,33 0,58l-6 46c7,1 14,2 21,3 19,2 36,2 53,2l12 -1c6,0 12,-1 17,-2 5,-2 10,-4 15,-8l3 -102c0,-7 2,-12 6,-17 4,-5 10,-7 18,-7 8,0 14,3 18,8 4,5 5,11 5,18l-3 89c0,8 1,14 4,18 3,4 6,6 12,6l27 1 54 -1 53 -4zm171 -73c3,14 6,26 11,34 5,9 11,12 20,11l33 -6 -14 -76c-1,-7 -5,-12 -11,-15 -6,-2 -12,-3 -19,-2 -11,2 -18,7 -20,16 -3,9 -3,21 0,37zm18 -92c17,-3 30,-3 41,0 10,3 19,10 26,22 7,12 13,31 18,55l18 101c3,16 1,32 -5,47 -7,16 -22,26 -47,30 -18,3 -32,1 -42,-5 -10,-7 -16,-16 -18,-27 -1,-3 -1,-5 -1,-7 5,3 12,5 20,6 8,2 15,2 22,0 8,-1 14,-4 19,-9 5,-5 7,-11 5,-18l-5 -26 -33 7c-46,8 -74,-16 -84,-74 -5,-25 -4,-44 2,-59 6,-14 14,-25 24,-31 11,-6 24,-10 39,-13zm408 27l22 -10c5,-2 7,-6 8,-10 1,-5 0,-11 -4,-18l-52 -114c-4,-9 -8,-15 -13,-17 -4,-2 -8,-3 -10,-3 -3,0 -4,0 -5,0 -1,-2 -2,-6 -1,-10 0,-4 2,-9 5,-13 3,-5 7,-8 13,-11 10,-4 19,-4 29,0 9,5 17,13 22,25l58 127c7,15 9,30 6,44 -3,14 -11,24 -25,30l-37 17 -52 21 -53 19 -32 9c-14,4 -27,4 -39,-1 -7,10 -18,16 -32,20l-54 15c-6,2 -10,1 -14,-3 -3,-3 -5,-7 -7,-12 -1,-4 -1,-9 -1,-14 1,-5 4,-8 10,-9l22 -6c19,-5 32,-14 38,-24 6,-11 7,-23 3,-37 -4,-13 -9,-23 -18,-30 -8,-8 -16,-13 -24,-15 -4,1 -8,4 -10,10 -2,6 -2,13 1,23 -3,2 -6,4 -10,6 -4,2 -8,4 -11,5 -7,2 -13,1 -20,-2 -6,-3 -11,-9 -13,-17 -3,-10 -2,-19 4,-27 6,-8 13,-14 21,-19 8,-5 16,-8 23,-10 10,-3 22,-3 36,0 14,3 27,10 39,19 12,10 21,23 25,40 2,7 3,16 4,26 1,10 0,19 -1,29l46 -13 50 -18 50 -20zm171 -37c-7,4 -14,4 -20,2 -6,-3 -10,-7 -13,-13l-74 -146c-4,-9 -9,-14 -13,-16 -4,-2 -8,-3 -11,-3 -3,0 -4,0 -5,0 -1,-2 -2,-6 -2,-10 0,-4 1,-9 4,-14 3,-5 7,-8 13,-11 9,-5 19,-5 28,0 10,5 17,12 23,24l78 156c3,6 4,12 3,18 -1,6 -6,11 -13,15zm131 -176c7,11 15,20 23,27 8,7 16,8 23,3l28 -18 -41 -65c-4,-6 -9,-10 -16,-10 -6,0 -12,2 -18,6 -9,6 -14,13 -13,23 1,9 5,21 14,34zm-63 -94c-5,3 -11,4 -18,3 -7,-1 -12,-5 -15,-10 -4,-6 -5,-12 -3,-18 2,-6 5,-11 10,-15 6,-4 12,-5 18,-3 6,1 11,5 15,10 4,6 5,12 3,18 -1,6 -5,11 -10,15zm50 -32c-5,3 -11,4 -18,3 -7,-1 -12,-5 -15,-10 -4,-6 -5,-12 -3,-18 2,-6 5,-11 10,-15 6,-4 12,-5 18,-3 6,1 11,5 15,11 4,6 5,12 3,18 -1,6 -5,11 -11,15zm322 -53c3,-9 3,-18 -1,-28 -4,-9 -8,-17 -14,-24 -6,-7 -13,-11 -21,-13 -8,-2 -17,-2 -26,1 -9,2 -17,7 -24,13 -9,8 -15,17 -17,28l102 23zm165 -166c6,-7 6,-14 0,-23 -6,-9 -13,-18 -23,-26 -12,-11 -23,-17 -32,-19 -9,-2 -17,1 -24,9 -5,5 -7,11 -8,17 -1,6 2,12 7,17l58 50 22 -25zm-112 -81c10,-11 20,-20 31,-26 11,-6 24,-8 39,-5 15,3 32,12 52,29 44,38 51,75 21,110 -9,10 -18,17 -29,21 -1,4 -2,8 -5,14 -3,5 -6,10 -10,15 -8,10 -17,19 -25,29 -12,16 -24,31 -37,43l-11 9c-10,8 -20,14 -32,15 -3,11 -9,20 -19,29l-96 84c-15,12 -28,25 -43,37 -18,15 -30,24 -45,34l-32 20c-5,3 -10,6 -16,8 -6,2 -10,3 -14,3 -5,10 -13,18 -24,25 -39,25 -74,13 -106,-36 -14,-21 -21,-40 -21,-55 0,-16 3,-28 11,-38 8,-10 18,-19 31,-27 14,-9 27,-14 38,-16 11,-1 22,2 33,11 11,9 24,23 37,45 8,13 16,26 25,39 6,-4 12,-8 18,-11 15,-10 29,-20 44,-33l40 -35 59 -52 -112 -25c-3,-7 -4,-15 -3,-25 1,-10 4,-20 10,-32 6,-11 15,-22 27,-33 15,-13 31,-22 47,-27 16,-5 32,-5 47,-2 15,4 28,12 38,24 5,6 10,13 15,21 5,9 9,18 12,27l17 -15c11,-9 22,-23 34,-39l14 -16 -35 -30c-19,-17 -32,-31 -39,-43 -7,-12 -9,-24 -6,-34 3,-10 10,-22 21,-35zm397 -102c-4,6 -10,10 -17,12 -7,2 -14,0 -20,-3 -6,-4 -10,-10 -12,-17 -1,-7 0,-14 4,-20 4,-6 9,-10 17,-11 7,-2 14,-1 20,3 6,4 10,9 11,17 2,7 0,14 -3,20zm-49 -149l22 -48 26 -50 9 -20c2,-5 2,-9 -1,-13 -3,-4 -7,-8 -15,-11l-115 -51c-9,-4 -16,-5 -21,-4 -5,1 -8,3 -10,4 -2,2 -3,3 -3,3 -2,-1 -5,-3 -8,-7 -3,-3 -4,-8 -5,-13 -1,-5 0,-11 3,-17 4,-10 12,-16 22,-19 10,-3 21,-1 33,4l127 56c15,7 27,16 34,28 7,12 7,25 1,39l-17 37 0 0 -26 50 -23 51 -5 7c-8,13 -18,21 -31,26 1,14 -3,27 -11,39l-63 99 -21 27c-9,12 -20,19 -34,19 -14,0 -28,-5 -42,-14l-106 -75c-8,-6 -14,-8 -19,-8 -5,0 -8,1 -11,2 -2,1 -4,2 -4,3 -2,-1 -4,-4 -6,-8 -2,-4 -3,-9 -3,-14 0,-5 2,-11 6,-16 6,-9 14,-13 25,-14 11,0 21,3 31,10l111 79c6,5 12,7 17,7 5,0 8,-2 12,-6l11 -13 61 -96c2,-3 2,-8 1,-13 -1,-6 -4,-12 -9,-18 -5,-6 -11,-12 -19,-17 -16,-10 -30,-12 -43,-6 -13,6 -23,16 -32,30l-19 30c-6,10 -14,15 -24,16 -10,1 -19,-1 -28,-7 -4,-3 -6,-5 -7,-8 -1,-3 -1,-5 1,-7 4,1 9,-1 16,-6 6,-4 13,-11 19,-21l13 -22 9 -15c7,-11 17,-20 30,-28 13,-7 28,-11 44,-12 16,0 31,4 47,14 6,4 13,9 19,15 7,6 12,13 17,21l14 -22zm149 -238c-3,8 -8,12 -14,14 -6,2 -12,1 -18,-1l-152 -61c-9,-4 -16,-5 -21,-4 -5,1 -8,3 -10,5 -2,2 -3,3 -3,3 -2,-1 -5,-3 -8,-6 -3,-3 -5,-8 -6,-13 -1,-5 0,-11 2,-17 4,-10 11,-16 21,-19 10,-3 21,-2 33,3l162 65c6,2 11,6 14,12 3,5 3,12 0,20zm-3706 222c-12,-6 -21,-16 -27,-29l-56 -124c-7,-15 -7,-27 -3,-38 5,-11 15,-20 29,-26l76 -35c6,-3 12,-3 18,-2 6,1 11,6 14,14 3,8 4,14 1,20 -3,5 -7,10 -14,12l-65 30c-7,3 -12,7 -14,11 -2,4 -3,8 -1,13l49 109c3,6 10,10 20,11 11,1 24,-3 41,-10 11,-5 20,-10 25,-15 6,-5 10,-10 12,-14 2,-5 4,-11 6,-18 3,-1 6,-2 10,-1 4,1 8,2 12,5 4,3 7,8 10,13 6,13 4,25 -4,37 -9,12 -23,22 -43,32 -23,11 -45,16 -66,15 24,38 49,75 73,113 4,6 11,8 22,7 11,-1 24,-6 39,-16 10,-7 18,-13 23,-18 5,-6 8,-11 10,-16 2,-5 3,-11 3,-19 2,-2 6,-2 10,-2 4,0 9,1 13,4 5,2 8,6 12,12 8,12 8,24 1,37 -7,13 -19,26 -38,37 -16,10 -32,17 -48,21 -16,4 -32,4 -46,0 -14,-4 -25,-13 -34,-26 -21,-32 -42,-64 -64,-95 -12,-17 -14,-26 -9,-47z"/>
  </g>
 </g>
</svg>
